<svg width="46" height="74" viewBox="0 0 46 74" fill="none" xmlns="http://www.w3.org/2000/svg">
<path d="M22.9987 33C21.9378 33 20.9204 33.4214 20.1703 34.1716C19.4201 34.9217 18.9987 35.9391 18.9987 37C18.9987 38.0609 19.4201 39.0783 20.1703 39.8284C20.9204 40.5786 21.9378 41 22.9987 41C24.0596 41 25.077 40.5786 25.8271 39.8284C26.5773 39.0783 26.9987 38.0609 26.9987 37C26.9987 35.9391 26.5773 34.9217 25.8271 34.1716C25.077 33.4214 24.0596 33 22.9987 33ZM22.9987 43.6667C21.2306 43.6667 19.5349 42.9643 18.2847 41.714C17.0344 40.4638 16.332 38.7681 16.332 37C16.332 35.2319 17.0344 33.5362 18.2847 32.286C19.5349 31.0357 21.2306 30.3333 22.9987 30.3333C24.7668 30.3333 26.4625 31.0357 27.7127 32.286C28.963 33.5362 29.6654 35.2319 29.6654 37C29.6654 38.7681 28.963 40.4638 27.7127 41.714C26.4625 42.9643 24.7668 43.6667 22.9987 43.6667ZM22.9987 27C16.332 27 10.6387 31.1467 8.33203 37C10.6387 42.8533 16.332 47 22.9987 47C29.6654 47 35.3587 42.8533 37.6654 37C35.3587 31.1467 29.6654 27 22.9987 27Z" fill="white"/>
</svg>
