<svg fill="#ffffff" version="1.1" id="Layer_1" width="40" height="40" viewBox="0 0 2.1 2.1" xml:space="preserve" stroke="#ffffff" sodipodi:docname="search.svg" inkscape:version="1.3.2 (091e20e, 2023-11-25, custom)" xmlns:inkscape="http://www.inkscape.org/namespaces/inkscape" xmlns:sodipodi="http://sodipodi.sourceforge.net/DTD/sodipodi-0.dtd" xmlns="http://www.w3.org/2000/svg" xmlns:svg="http://www.w3.org/2000/svg"><defs id="defs1"/><sodipodi:namedview id="namedview1" pagecolor="#ffffff" bordercolor="#000000" borderopacity="0.25" inkscape:showpageshadow="2" inkscape:pageopacity="0.0" inkscape:pagecheckerboard="0" inkscape:deskcolor="#d1d1d1" inkscape:zoom="11.610693" inkscape:cx="41.987157" inkscape:cy="31.479602" inkscape:window-width="1920" inkscape:window-height="1017" inkscape:window-x="-8" inkscape:window-y="-8" inkscape:window-maximized="1" inkscape:current-layer="Layer_1"/>

<g id="SVGRepo_bgCarrier" stroke-width="0"/>

<g id="SVGRepo_tracerCarrier" stroke-linecap="round" stroke-linejoin="round"/>

<g id="SVGRepo_iconCarrier" style="fill:#f4f4f4;fill-opacity:1" transform="matrix(0.04796566,0,0,0.0491419,0.05105618,-0.00731629)"> <path d="m 1,17.838 c 0,8.747 7.131,15.827 15.94,15.827 8.796,0 15.938,-7.08 15.938,-15.827 C 32.878,9.091 25.736,2 16.94,2 8.131,2 1,9.091 1,17.838 Z m 5.051,0 c 0,-5.979 4.868,-10.817 10.89,-10.817 6.01,0 10.888,4.839 10.888,10.817 0,5.979 -4.878,10.818 -10.888,10.818 -6.022,0 -10.89,-4.84 -10.89,-10.818 z m 22.111,14.523 6.855,7.809 c 1.104,1.102 1.816,1.111 2.938,0 l 2.201,-2.181 c 1.082,-1.081 1.149,-1.778 0,-2.921 L 32.26,28.293 Z" id="path1" style="fill:#f4f4f4;fill-opacity:1"/> </g>

</svg>